# xmcd
#
# Track frame offsets: 
#        150
#        15677
#        28703
#        44562
#        61290
#        81645
#        99185
#        117295
#        133442
#        149356
#        164988
#        184022
#        201399
#        219963
#        236803
#        253877
#        271197
#        290497
#        321581
#
# Disc length: 4795 seconds
#
# Revision: 2
# Processed by: cddbd v1.5.2PL0 Copyright (c) Steve Scherf et al.
# Submitted via: ExactAudioCopy v0.95b4
#
DISCID=3512b913
DTITLE=LONESTAR - from there to here GREATEST HITS
DYEAR=2003
DGENRE=Country
TTITLE0=TEQUILA TALKIN'
TTITLE1=NO NEWS
TTITLE2=RUNNIN' AWAY WITH MY HEART
TTITLE3=COME CRYIN' TO ME
TTITLE4=YOU WALKED IN
TTITLE5=EVERYTHING'S CHANGED
TTITLE6=AMAZED
TTITLE7=SMILE
TTITLE8=WHAT ABOUT NOW
TTITLE9=TELL HER
TTITLE10=I'M ALREADY THERE
TTITLE11=WITH ME
TTITLE12=NOT A DAY GOES BY
TTITLE13=MY FRONT PORCH LOOKING IN
TTITLE14=I PRAY
TTITLE15=WALKING IN MEMPHIS
TTITLE16=LOVE CAN CHANGE YOUR MIND
TTITLE17=GIMME ALL YOUR LOVIN'
TTITLE18=Daten-CD
EXTD=
EXTT0=
EXTT1=
EXTT2=
EXTT3=
EXTT4=
EXTT5=
EXTT6=
EXTT7=
EXTT8=
EXTT9=
EXTT10=
EXTT11=
EXTT12=
EXTT13=
EXTT14=
EXTT15=
EXTT16=
EXTT17=
EXTT18=
PLAYORDER=
